<svg width="28" height="28" viewBox="0 0 28 28" fill="none" xmlns="http://www.w3.org/2000/svg">
<path opacity="0.4" fill-rule="evenodd" clip-rule="evenodd" d="M19.7725 16.7053C20.1466 17.1019 20.1284 17.7266 19.7319 18.1008C16.562 21.0912 11.4388 21.0934 8.27974 18.0992C7.88406 17.7241 7.86733 17.0993 8.24239 16.7036C8.61746 16.3079 9.24228 16.2911 9.63798 16.6662C12.0336 18.9369 15.966 18.9391 18.3769 16.6646C18.7735 16.2904 19.3983 16.3087 19.7725 16.7053Z" fill="#656782"/>
<path fill-rule="evenodd" clip-rule="evenodd" d="M14 24.0236C19.5359 24.0236 24.0236 19.5359 24.0236 14C24.0236 8.46404 19.5359 3.97629 14 3.97629C8.46404 3.97629 3.97629 8.46404 3.97629 14C3.97629 19.5359 8.46404 24.0236 14 24.0236ZM14 25.8461C20.5424 25.8461 25.8461 20.5424 25.8461 14C25.8461 7.45751 20.5424 2.15381 14 2.15381C7.45751 2.15381 2.15381 7.45751 2.15381 14C2.15381 20.5424 7.45751 25.8461 14 25.8461Z" fill="#656782"/>
<circle opacity="0.5" cx="11.0383" cy="11.0383" r="1.97436" fill="#9899A4" fill-opacity="0.5"/>
<circle opacity="0.5" cx="16.9617" cy="11.0383" r="1.97436" fill="#9899A4" fill-opacity="0.5"/>
</svg>
