<svg width="28" height="28" viewBox="0 0 28 28" fill="none" xmlns="http://www.w3.org/2000/svg">
<path d="M22.9686 5.89376L22.9687 5.89393C23.1831 6.21541 23.4294 6.81191 23.6808 7.60941C23.9258 8.38654 24.1556 9.28765 24.357 10.1694C24.7139 11.7321 24.9742 13.2007 25.0672 13.7446C24.733 13.882 23.8273 14.2 22.6041 14.2C22.3817 14.2 22.1591 14.1894 21.9378 14.1685L21.8672 14.9151L21.9378 14.1685C21.3386 14.1118 20.775 14.5736 20.775 15.2198V24.1572C20.3576 24.3693 18.5142 25.15 13.9709 25.15C9.42799 25.15 7.58443 24.3695 7.16674 24.1572V15.2209C7.16674 14.5746 6.60333 14.1135 6.00499 14.1691C5.78704 14.1894 5.56244 14.2 5.33759 14.2C4.11442 14.2 3.20876 13.8821 2.87452 13.7447C2.96756 13.2008 3.22786 11.7321 3.58479 10.1693C3.78616 9.28761 4.01593 8.3865 4.26091 7.60938C4.51231 6.81188 4.75864 6.21539 4.97302 5.89393L4.97313 5.89376C5.55641 5.01862 6.4574 4.3177 7.38436 3.78284C8.19871 3.31295 8.99462 2.99316 9.52681 2.8059C10.123 4.34866 11.7032 5.98753 13.9709 5.98753C16.2385 5.98753 17.8187 4.34869 18.4149 2.8059C18.9471 2.99316 19.743 3.31295 20.5574 3.78284C21.4843 4.3177 22.3853 5.01862 22.9686 5.89376Z" stroke="#656782" stroke-width="1.5"/>
<path d="M11.0235 15.286C11.001 15.1192 11.1385 14.9801 11.3069 14.9801H12.0965C12.2506 14.9801 12.3754 15.0986 12.4173 15.2469C12.5707 15.789 13.0223 16.0601 13.772 16.0601C13.932 16.0601 14.08 16.0521 14.216 16.0361C14.36 16.0121 14.508 15.9761 14.66 15.9281C14.82 15.8721 14.944 15.7881 15.032 15.6761C15.12 15.5561 15.16 15.4121 15.152 15.2441C15.144 15.1401 15.12 15.0481 15.08 14.9681C15.048 14.8881 14.988 14.8201 14.9 14.7641C14.82 14.7001 14.74 14.6481 14.66 14.6081C14.58 14.5681 14.468 14.5281 14.324 14.4881C14.18 14.4481 14.06 14.4161 13.964 14.3921C13.868 14.3681 13.728 14.3401 13.544 14.3081C13.36 14.2681 13.22 14.2361 13.124 14.2121C12.836 14.1481 12.588 14.0801 12.38 14.0081C12.172 13.9281 11.964 13.8241 11.756 13.6961C11.556 13.5601 11.4 13.3841 11.288 13.1681C11.184 12.9441 11.132 12.6801 11.132 12.3761C11.132 12.0561 11.212 11.7761 11.372 11.5361C11.532 11.2881 11.744 11.1001 12.008 10.9721C12.272 10.8441 12.548 10.7521 12.836 10.6961C13.124 10.6321 13.42 10.6001 13.724 10.6001C14.42 10.6001 15.008 10.7561 15.488 11.0681C15.8836 11.3186 16.1406 11.6887 16.2591 12.1784C16.3011 12.352 16.1599 12.5081 15.9813 12.5081H15.1332C14.9906 12.5081 14.8726 12.4049 14.8151 12.2744C14.6404 11.8782 14.2448 11.6801 13.628 11.6801C13.46 11.6801 13.3 11.6961 13.148 11.7281C12.996 11.7521 12.848 11.8161 12.704 11.9201C12.568 12.0161 12.5 12.1481 12.5 12.3161C12.5 12.4121 12.516 12.5001 12.548 12.5801C12.58 12.6521 12.64 12.7161 12.728 12.7721C12.816 12.8281 12.896 12.8761 12.968 12.9161C13.04 12.9561 13.152 13.0001 13.304 13.0481C13.464 13.0881 13.584 13.1201 13.664 13.1441C13.752 13.1601 13.896 13.1881 14.096 13.2281C14.296 13.2681 14.436 13.2961 14.516 13.3121C14.812 13.3761 15.06 13.4481 15.26 13.5281C15.468 13.6001 15.676 13.7041 15.884 13.8401C16.092 13.9761 16.248 14.1521 16.352 14.3681C16.464 14.5761 16.52 14.8281 16.52 15.1241C16.52 15.5881 16.372 15.9801 16.076 16.3001C15.788 16.6121 15.444 16.8321 15.044 16.9601C14.644 17.0801 14.212 17.1401 13.748 17.1401C12.932 17.1401 12.272 16.9561 11.768 16.5881C11.3465 16.2754 11.0983 15.8414 11.0235 15.286Z" fill="#656782" fill-opacity="0.7"/>
</svg>
