<svg width="28" height="28" viewBox="0 0 28 28" fill="none" xmlns="http://www.w3.org/2000/svg">
<path fill-rule="evenodd" clip-rule="evenodd" d="M11.8408 3.5752C12.0729 3.5752 12.2954 3.66739 12.4596 3.83148L21.0346 12.4065C21.808 13.1799 21.808 14.4338 21.0346 15.2072L14.0113 22.2306C13.1433 23.0986 12.1574 23.6425 11.0663 23.6405C9.97684 23.6384 8.98703 23.0923 8.10944 22.2212L8.10712 22.2189L3.42878 17.5406C2.55292 16.6647 2 15.6766 2 14.5827C2 13.4888 2.55292 12.5007 3.42878 11.6248L11.2221 3.83148C11.3862 3.66739 11.6088 3.5752 11.8408 3.5752ZM11.8408 5.68763L4.66622 12.8622C3.97875 13.5497 3.75 14.1191 3.75 14.5827C3.75 15.0463 3.97875 15.6157 4.66622 16.3032L9.34223 20.9792C9.34262 20.9795 9.343 20.9799 9.34339 20.9804C10.0286 21.6601 10.6018 21.8895 11.0696 21.8905C11.5359 21.8913 12.1017 21.6652 12.7738 20.9932L19.7971 13.9699C19.8871 13.8799 19.8871 13.734 19.7971 13.644L20.4158 13.0252L19.7971 13.644L11.8408 5.68763Z" fill="#656782"/>
<path fill-rule="evenodd" clip-rule="evenodd" d="M9.67082 2.25628C10.0125 1.91458 10.5666 1.91457 10.9083 2.25627L12.4716 3.81956C12.8133 4.16126 12.8133 4.71529 12.4716 5.057C12.1299 5.39871 11.5759 5.39872 11.2342 5.05702L9.67085 3.49372C9.32913 3.15202 9.32912 2.598 9.67082 2.25628Z" fill="#656782"/>
<path opacity="0.4" fill-rule="evenodd" clip-rule="evenodd" d="M21.4757 13.6987C21.4967 14.1815 21.1224 14.5899 20.6396 14.611L2.9996 15.3809C2.51681 15.402 2.10834 15.0278 2.08727 14.5449C2.06619 14.0621 2.44049 13.6537 2.92328 13.6327L20.5633 12.8627C21.0461 12.8416 21.4545 13.2158 21.4757 13.6987Z" fill="#656782"/>
<path fill-rule="evenodd" clip-rule="evenodd" d="M3.17334 25.9746C3.17334 25.4914 3.56509 25.0996 4.04834 25.0996H19.215C19.6982 25.0996 20.09 25.4914 20.09 25.9746C20.09 26.4578 19.6982 26.8496 19.215 26.8496H4.04834C3.56509 26.8496 3.17334 26.4578 3.17334 25.9746Z" fill="#656782"/>
<path opacity="0.4" fill-rule="evenodd" clip-rule="evenodd" d="M23.1839 17.5071L22.5402 18.0996L21.8964 17.5071C22.0621 17.327 22.2955 17.2246 22.5402 17.2246C22.7848 17.2246 23.0183 17.327 23.1839 17.5071ZM22.5402 19.4645C22.4234 19.6149 22.2996 19.7805 22.1762 19.9555C21.922 20.3163 21.6816 20.7002 21.5079 21.0621C21.3264 21.4406 21.2568 21.7153 21.2568 21.8796C21.2568 22.5864 21.8334 23.1629 22.5402 23.1629C23.2469 23.1629 23.8235 22.5864 23.8235 21.8796C23.8235 21.7153 23.754 21.4406 23.5724 21.0621C23.3987 20.7002 23.1584 20.3163 22.9041 19.9555C22.7807 19.7805 22.657 19.6149 22.5402 19.4645ZM22.5402 18.0996C21.8964 17.5071 21.8965 17.5069 21.8964 17.5071L21.8952 17.5082L21.8934 17.5103L21.8873 17.517L21.8662 17.5402C21.8483 17.56 21.8229 17.5884 21.7912 17.6244C21.7276 17.6965 21.6381 17.7997 21.5314 17.9275C21.3186 18.1823 21.0331 18.5397 20.7458 18.9474C20.4605 19.3523 20.1612 19.8237 19.9302 20.305C19.7072 20.7699 19.5068 21.3264 19.5068 21.8796C19.5068 23.5528 20.8669 24.9129 22.5402 24.9129C24.2134 24.9129 25.5735 23.5528 25.5735 21.8796C25.5735 21.3264 25.3732 20.7699 25.1501 20.305C24.9191 19.8237 24.6199 19.3523 24.3345 18.9474C24.0473 18.5397 23.7618 18.1823 23.549 17.9275C23.4422 17.7997 23.3528 17.6965 23.2892 17.6244C23.2574 17.5884 23.232 17.56 23.2142 17.5402L23.193 17.517L23.187 17.5103L23.1839 17.5071C23.1838 17.5069 23.1839 17.5071 22.5402 18.0996Z" fill="#656782"/>
</svg>
