<svg width="28" height="28" viewBox="0 0 28 28" fill="none" xmlns="http://www.w3.org/2000/svg">
<rect opacity="0.5" x="9.50732" y="14.1602" width="8.9296" height="1.58753" fill="#656782"/>
<path d="M17.6738 14.9495L17.6738 14.9495L17.6748 14.952L18.2783 16.4739L18.2786 16.4746L20.2941 21.6175C20.48 22.0919 20.9375 22.404 21.4471 22.404H21.8392C22.3324 22.404 22.6709 21.9076 22.4909 21.4485L15.6973 4.12478C15.5113 3.65047 15.0538 3.33846 14.5443 3.33846H14.0115C13.5059 3.33846 13.051 3.64586 12.8624 4.11503L5.89728 21.443C5.71239 21.9029 6.05104 22.404 6.54677 22.404H6.90228C7.41363 22.404 7.8724 22.0898 8.05712 21.6129L10.0481 16.4734L10.0482 16.4734L10.0494 16.47L10.6 14.9494L13.8425 6.65034C13.9682 6.32863 14.4244 6.33134 14.5462 6.65453L17.6738 14.9495Z" fill="#656782" stroke="#656782" stroke-width="0.323077"/>
<rect opacity="0.5" x="4" y="24.0962" width="20.125" height="1.75" rx="0.875" fill="#656782"/>
</svg>
