<svg width="28" height="28" viewBox="0 0 28 28" fill="none" xmlns="http://www.w3.org/2000/svg">
<path fill-rule="evenodd" clip-rule="evenodd" d="M4.9585 11.9044C4.9585 9.61698 6.81278 7.7627 9.10016 7.7627H21.2335C23.5209 7.7627 25.3752 9.61698 25.3752 11.9044V21.7044C25.3752 23.9918 23.5209 25.8461 21.2335 25.8461H9.10016C6.81278 25.8461 4.9585 23.9918 4.9585 21.7044V11.9044ZM9.10016 9.5127C7.77929 9.5127 6.7085 10.5835 6.7085 11.9044V21.7044C6.7085 23.0253 7.77929 24.0961 9.10016 24.0961H21.2335C22.5544 24.0961 23.6252 23.0253 23.6252 21.7044V11.9044C23.6252 10.5835 22.5544 9.5127 21.2335 9.5127H9.10016Z" fill="#656782"/>
<path opacity="0.5" fill-rule="evenodd" clip-rule="evenodd" d="M11.6128 15.0547C11.4686 14.8764 11.1844 14.9265 11.11 15.1435L9.52423 19.7688C9.45933 19.9581 9.60001 20.1551 9.80014 20.1551H19.913C20.1496 20.1551 20.2877 19.8881 20.1511 19.6949L18.0757 16.7601C17.9693 16.6096 17.7517 16.5943 17.6252 16.7283L16.7199 17.6886C15.8714 18.5885 14.424 18.5333 13.6466 17.5712L11.6128 15.0547ZM9.45464 14.5759C9.97537 13.0572 11.9647 12.706 12.9739 13.9548L15.0076 16.4713C15.1187 16.6087 15.3255 16.6166 15.4466 16.488L16.3519 15.5278C17.237 14.5892 18.7597 14.6965 19.5045 15.7496L21.5799 18.6846C22.5361 20.0369 21.5692 21.9051 19.913 21.9051H9.80014C8.39923 21.9051 7.41448 20.5264 7.86883 19.2012L9.45464 14.5759Z" fill="#656782"/>
<path opacity="0.5" d="M20.9998 12.8634C20.9998 13.5078 20.4775 14.0301 19.8332 14.0301C19.1888 14.0301 18.6665 13.5078 18.6665 12.8634C18.6665 12.2191 19.1888 11.6968 19.8332 11.6968C20.4775 11.6968 20.9998 12.2191 20.9998 12.8634Z" fill="#656782"/>
<path fill-rule="evenodd" clip-rule="evenodd" d="M6.44278 6.52452C5.15523 6.79189 4.32564 8.04867 4.58556 9.33848L6.20782 17.3885C6.30329 17.8622 5.99664 18.3236 5.52292 18.4191C5.0492 18.5146 4.58778 18.2078 4.49231 17.7342L2.87005 9.6842C2.42012 7.4516 3.85634 5.27429 6.08696 4.81107L11.3096 3.72649C13.0165 3.37201 15.2217 2.95585 16.9488 2.63733C18.9878 2.26131 21.015 3.46417 21.5738 5.49762C21.7763 6.23503 21.9781 7.02224 22.1193 7.70253C22.2176 8.17569 21.9137 8.63891 21.4406 8.73717C20.9674 8.83543 20.5042 8.53152 20.4059 8.05837C20.2755 7.43075 20.0849 6.68413 19.8863 5.9613C19.5775 4.83768 18.4469 4.14056 17.2661 4.35831C15.5412 4.67642 13.3521 5.08966 11.6654 5.43992L6.44278 6.52452Z" fill="#656782"/>
</svg>
