<svg width="24" height="24" viewBox="0 0 24 24" fill="none" xmlns="http://www.w3.org/2000/svg">
<path fill-rule="evenodd" clip-rule="evenodd" d="M12 3.00342C9.65279 3.00342 7.75 4.90621 7.75 7.25342C7.75 9.60063 9.65279 11.5034 12 11.5034C14.3472 11.5034 16.25 9.60063 16.25 7.25342C16.25 4.90621 14.3472 3.00342 12 3.00342ZM6.25 7.25342C6.25 4.07778 8.82436 1.50342 12 1.50342C15.1756 1.50342 17.75 4.07778 17.75 7.25342C17.75 10.429 15.1756 13.0034 12 13.0034C8.82436 13.0034 6.25 10.429 6.25 7.25342Z" fill="#656782"/>
<path opacity="0.5" fill-rule="evenodd" clip-rule="evenodd" d="M2.66016 21.75C2.66016 17.3291 6.99728 14 12.0002 14C17.003 14 21.3401 17.3291 21.3401 21.75C21.3401 22.1642 21.0044 22.5 20.5901 22.5C20.1759 22.5 19.8401 22.1642 19.8401 21.75C19.8401 18.4309 16.4773 15.5 12.0002 15.5C7.52303 15.5 4.16016 18.4309 4.16016 21.75C4.16016 22.1642 3.82437 22.5 3.41016 22.5C2.99594 22.5 2.66016 22.1642 2.66016 21.75Z" fill="#656782"/>
</svg>
