<svg width="512" height="460" viewBox="0 0 512 460" fill="none" xmlns="http://www.w3.org/2000/svg">
<g clip-path="url(#clip0_1750_12109)">
<path d="M407.93 156.93C407.93 156.93 403.864 231.548 404.413 265.176C405.402 325.288 407.93 458.481 407.93 458.481H103.961C103.961 458.481 106.488 325.179 107.477 265.176C108.027 231.438 103.961 156.93 103.961 156.93C103.961 156.93 116.379 121.983 113.961 90.553C111.543 59.1231 93.5205 30.99 93.5205 30.99L185.283 2.74707C185.283 2.74707 187.041 83.8495 255.945 83.8495C322.431 83.8495 327.487 9.78034 327.816 3.07675L418.26 30.8801C418.26 30.8801 400.347 59.0132 397.929 90.4432C395.512 121.983 407.93 156.93 407.93 156.93Z" fill="white"/>
<path d="M408.699 459.25H103.301V458.591C103.301 457.272 105.939 324.629 106.818 265.286C107.367 231.988 103.301 157.809 103.301 157.04V156.93V156.82C103.411 156.49 115.719 121.653 113.302 90.773C110.884 59.8926 93.1909 31.7595 92.9711 31.5397L92.5315 30.7705L186.052 1.97803V2.85719C186.052 3.07698 186.601 23.2976 195.503 43.1886C207.372 69.7831 227.702 83.3002 255.945 83.3002C283.419 83.3002 303.639 70.6623 316.058 45.8261C325.509 26.7044 326.937 7.03319 327.157 3.18687V2.30771L419.359 30.6606L418.919 31.4298C418.699 31.7595 401.006 59.7827 398.698 90.6632C396.281 121.544 408.589 156.38 408.699 156.71V156.82V156.93C408.699 157.699 404.633 231.878 405.182 265.176C406.061 324.519 408.699 457.162 408.699 458.481V459.25ZM104.73 457.932H407.27C407.051 447.382 404.633 322.431 403.754 265.286C403.204 232.647 407.051 160.666 407.27 157.04C406.391 154.622 394.962 120.774 397.27 90.5533C399.468 62.2004 414.413 36.1553 417.271 31.4298L328.586 4.06603C328.256 9.45088 326.388 28.2429 317.376 46.3755C311.772 57.5848 304.409 66.4863 295.617 72.8602C284.628 80.6627 271.33 84.6189 255.945 84.6189C240.12 84.6189 226.493 80.3331 215.394 71.7613C206.602 64.9478 199.459 55.4968 194.184 43.6282C186.272 25.8252 184.843 7.91235 184.623 3.73634L94.7294 31.4298C97.5867 36.1553 112.532 62.2004 114.73 90.5533C117.038 120.774 105.609 154.622 104.73 157.04C104.95 160.666 108.686 232.537 108.246 265.286C107.367 322.431 104.95 447.272 104.73 457.932Z" fill="#2A2D46"/>
<path d="M103.96 156.93L46.4853 178.36L0.878906 85.7183L93.6301 31.1006C93.6301 31.1006 111.543 59.2337 114.071 90.6636C116.488 121.984 103.96 156.93 103.96 156.93Z" fill="white"/>
<path d="M46.2657 179.239L0 85.3884L93.8502 30.1113L94.1799 30.6608C94.3997 30.9905 112.203 59.3434 114.62 90.5535C117.038 121.764 104.73 156.82 104.62 157.15L104.51 157.479L46.2657 179.239ZM1.75832 85.9379L46.8152 177.48L103.411 156.38C104.62 152.864 115.499 120.005 113.302 90.6634C111.104 62.2006 95.9382 36.1555 93.4106 31.9795L1.75832 85.9379Z" fill="#2A2D46"/>
<path d="M327.596 3.07713C327.706 3.07713 327.816 3.29692 327.816 3.40682C327.376 11.539 321.552 83.8498 255.945 83.8498C189.349 83.8498 185.502 8.0224 185.282 2.96724C185.282 2.85734 185.392 2.63755 185.502 2.63755L191.876 0.659446C192.206 0.549551 192.536 0.769341 192.536 1.09903C192.645 2.52766 192.865 6.04429 193.525 10.9896C196.602 31.6498 208.69 75.4978 255.835 75.4978C304.628 75.4978 315.837 31.1003 318.475 10.6599C319.134 5.71461 319.244 2.19797 319.244 0.989131C319.244 0.769341 319.464 0.659446 319.684 0.659446L327.596 3.07713Z" fill="white"/>
<path d="M255.945 84.6189C240.56 84.6189 227.262 80.5528 216.383 72.5305C207.591 66.0467 200.448 57.0353 195.063 45.6063C185.722 25.8252 184.623 5.27487 184.623 3.07697C184.623 2.6374 184.953 2.19782 185.392 2.08792L191.766 0.109814C192.096 -8.07419e-05 192.535 0.109814 192.755 0.219709C193.085 0.439499 193.195 0.769183 193.305 1.09887C193.415 2.41761 193.634 6.04413 194.294 10.8795C197.151 30.1111 208.91 74.7284 255.945 74.7284C304.518 74.7284 315.398 29.7814 317.925 10.4399C318.585 5.60456 318.695 2.19782 318.695 0.879078C318.695 0.549393 318.805 0.219709 319.134 0.109814C319.354 -0.109976 319.684 -0.109976 320.013 -8.07419e-05L327.816 2.41761C328.256 2.5275 328.585 2.96708 328.585 3.40666C328.146 11.7587 322.211 84.6189 255.945 84.6189ZM186.052 3.29676C186.162 6.59361 187.37 26.1549 196.382 45.0568C208.36 70.3326 228.471 83.1903 255.945 83.1903C320.233 83.1903 326.607 13.0774 327.157 3.62645L320.013 1.42855C320.013 2.96708 319.794 6.26392 319.244 10.6597C316.717 30.3309 305.617 76.157 255.945 76.157C235.285 76.157 219.02 67.805 207.701 51.3208C198.47 37.9136 194.623 21.9789 192.975 11.0993C192.316 6.48371 191.986 2.96708 191.986 1.42855L186.052 3.29676Z" fill="#2A2D46"/>
<path d="M319.354 0.989399C319.354 2.08835 319.245 5.71488 318.585 10.6601C318.585 10.6601 318.585 10.6601 318.585 10.77C317.926 11.6492 300.123 33.9578 256.495 33.9578C217.042 33.9578 195.723 13.2976 193.635 11.2096C193.635 11.2096 193.635 11.2096 193.635 11.0997C192.866 5.82477 192.646 2.19824 192.646 0.989399C192.646 0.879504 192.756 0.769609 192.866 0.879504C195.393 3.51698 217.592 24.6168 256.605 24.6168C298.145 24.6168 316.827 3.73677 319.135 0.989399C319.245 0.769609 319.354 0.879504 319.354 0.989399Z" fill="white"/>
<path d="M256.495 34.6171C216.823 34.6171 195.503 13.9568 193.195 11.6491C193.085 11.5392 192.975 11.3194 192.975 11.2095C192.206 5.93452 191.986 2.0882 191.986 1.09915C191.986 0.769465 192.206 0.43978 192.536 0.329886C192.865 0.219991 193.195 0.219991 193.415 0.549675C195.833 2.96736 217.812 24.0672 256.714 24.0672C298.145 24.0672 316.717 3.07726 318.695 0.65957C318.915 0.439781 319.245 0.329886 319.574 0.43978C319.904 0.549675 320.124 0.87936 320.124 1.20904C320.124 2.52778 320.014 6.04442 319.354 10.8798C319.354 10.9897 319.245 11.2095 319.135 11.3194C318.365 12.0886 300.343 34.6171 256.495 34.6171ZM194.294 10.7699C197.151 13.6272 218.031 33.1884 256.495 33.1884C298.584 33.1884 316.387 12.3084 317.926 10.3303C318.365 6.92358 318.585 4.1762 318.585 2.41789C313.86 7.58294 294.628 25.276 256.604 25.276C220.449 25.276 198.58 7.14337 193.415 2.30799C193.525 4.06631 193.745 7.03347 194.294 10.7699Z" fill="#2A2D46"/>
<path d="M318.585 10.6597C316.058 31.1001 304.738 75.4976 255.945 75.4976C208.8 75.4976 196.712 31.6496 193.635 10.9894C195.503 12.9675 216.823 33.8475 256.495 33.8475C301.002 33.8475 318.585 10.6597 318.585 10.6597Z" fill="#2A2D46" fill-opacity="0.5"/>
<path d="M255.945 76.2671C235.285 76.2671 219.021 67.9151 207.701 51.4309C198.47 38.0237 194.624 22.0889 192.975 11.2093L192.646 9.12135L194.184 10.6599C196.492 12.9677 217.372 33.2982 256.495 33.2982C300.123 33.2982 317.926 10.55 318.036 10.3302L319.574 8.24219L319.245 10.7698C316.827 30.4409 305.728 76.2671 255.945 76.2671ZM194.624 12.9677C198.031 33.0784 210.559 74.8385 255.945 74.8385C302.76 74.8385 314.629 33.1883 317.596 12.8578C315.508 15.0557 311.332 18.902 304.519 22.8582C295.397 28.243 279.573 34.6169 256.385 34.6169C221.218 34.6169 200.448 18.3525 194.624 12.9677Z" fill="#2A2D46"/>
<path d="M511.121 85.7183L465.405 178.47L407.93 157.04C407.93 157.04 395.512 122.094 397.93 90.6636C400.347 59.2337 418.26 31.1006 418.26 31.1006L511.121 85.7183Z" fill="white"/>
<path d="M465.734 179.239L407.38 157.479L407.27 157.15C407.16 156.82 394.852 121.654 397.27 90.5535C399.688 59.3434 417.6 30.8806 417.71 30.6608L418.04 30.1113L418.589 30.441L511.89 85.3884L465.734 179.239ZM408.479 156.38L465.075 177.48L510.132 85.9379L418.589 31.9795C416.062 36.1555 400.896 62.2006 398.699 90.6634C396.391 120.005 407.27 152.974 408.479 156.38Z" fill="#2A2D46"/>
<path d="M10.6597 82.641C10.4399 82.641 10.1102 82.5312 10.0003 82.2015L9.23105 80.6629C9.01126 80.3333 9.23105 79.8937 9.56073 79.7838C9.89042 79.564 10.33 79.7838 10.4399 80.1135L11.2092 81.652C11.4289 81.9817 11.2092 82.4213 10.8795 82.5312C10.8795 82.5312 10.7696 82.641 10.6597 82.641Z" fill="#2A2D46"/>
<path d="M53.5187 170.887C53.2989 170.887 52.9693 170.777 52.8594 170.447L51.3208 167.26C51.101 166.931 51.3208 166.491 51.6505 166.381C51.9802 166.161 52.4198 166.381 52.5297 166.711L54.0682 169.898C54.288 170.227 54.0682 170.667 53.7385 170.777C53.7385 170.887 53.6286 170.887 53.5187 170.887ZM50.4417 164.623C50.2219 164.623 49.8922 164.513 49.7823 164.183L48.2438 160.996C48.024 160.667 48.2438 160.227 48.5735 160.117C48.9032 159.897 49.3427 160.117 49.4526 160.447L50.9912 163.634C51.2109 163.963 50.9911 164.403 50.6615 164.513C50.6615 164.623 50.5516 164.623 50.4417 164.623ZM47.3646 158.359C47.1448 158.359 46.8151 158.249 46.7053 157.919L45.1667 154.732C44.9469 154.403 45.1667 153.963 45.4964 153.853C45.8261 153.633 46.2657 153.853 46.3756 154.183L47.9141 157.37C48.1339 157.699 47.9141 158.139 47.5844 158.249C47.5844 158.249 47.4745 158.359 47.3646 158.359ZM44.3975 151.985C44.1777 151.985 43.848 151.875 43.7381 151.545L42.1996 148.358C41.9798 148.029 42.1996 147.589 42.5293 147.479C42.8589 147.259 43.2985 147.479 43.4084 147.809L44.9469 150.996C45.1667 151.325 44.9469 151.765 44.6173 151.875C44.5074 151.985 44.5074 151.985 44.3975 151.985ZM41.3204 145.721C41.1006 145.721 40.7709 145.611 40.661 145.281L39.1225 142.094C38.9027 141.765 39.1225 141.325 39.4522 141.215C39.7819 140.995 40.2215 141.215 40.3314 141.545L41.8699 144.732C42.0897 145.061 41.8699 145.501 41.5402 145.611C41.5402 145.721 41.4303 145.721 41.3204 145.721ZM38.2434 139.347C38.0236 139.347 37.6939 139.237 37.584 138.907L36.0455 135.72C35.8257 135.391 36.0455 134.951 36.3751 134.841C36.7048 134.621 37.1444 134.841 37.2543 135.171L38.7928 138.358C39.0126 138.688 38.7928 139.127 38.4631 139.237C38.4631 139.347 38.3532 139.347 38.2434 139.347ZM35.1663 133.083C34.9465 133.083 34.6168 132.973 34.5069 132.643L32.9684 129.456C32.7486 129.127 32.9684 128.687 33.2981 128.577C33.6278 128.357 34.0674 128.577 34.1772 128.907L35.7158 132.094C35.9356 132.424 35.7158 132.863 35.3861 132.973C35.3861 133.083 35.2762 133.083 35.1663 133.083ZM32.0892 126.819C31.8695 126.819 31.5398 126.709 31.4299 126.379L29.8913 123.192C29.6716 122.863 29.8913 122.423 30.221 122.313C30.5507 122.093 30.9903 122.313 31.1002 122.643L32.6387 125.83C32.8585 126.16 32.6387 126.599 32.309 126.709C32.309 126.709 32.1991 126.819 32.0892 126.819ZM29.0122 120.445C28.7924 120.445 28.4627 120.335 28.3528 120.005L26.8143 116.818C26.5945 116.489 26.8143 116.049 27.144 115.939C27.4737 115.72 27.9132 115.939 28.0231 116.269L29.5617 119.456C29.7815 119.786 29.5617 120.225 29.232 120.335C29.232 120.445 29.1221 120.445 29.0122 120.445ZM26.045 114.181C25.8252 114.181 25.4956 114.071 25.3857 113.741L23.8471 110.554C23.6273 110.225 23.8471 109.785 24.1768 109.675C24.5065 109.456 24.9461 109.675 25.056 110.005L26.5945 113.192C26.8143 113.522 26.5945 113.961 26.2648 114.071C26.1549 114.181 26.1549 114.181 26.045 114.181ZM22.968 107.807C22.7482 107.807 22.4185 107.697 22.3086 107.368L20.7701 104.181C20.5503 103.851 20.7701 103.411 21.0998 103.301C21.4294 103.082 21.869 103.301 21.9789 103.631L23.5174 106.818C23.7372 107.148 23.5174 107.587 23.1878 107.697C23.1878 107.807 23.0779 107.807 22.968 107.807ZM19.8909 101.543C19.6711 101.543 19.3414 101.433 19.2315 101.104L17.693 97.9166C17.4732 97.5869 17.693 97.1473 18.0227 97.0374C18.3524 96.8176 18.792 97.0374 18.9019 97.3671L20.4404 100.554C20.6602 100.884 20.4404 101.323 20.1107 101.433C20.1107 101.543 20.0008 101.543 19.8909 101.543ZM16.8139 95.2791C16.5941 95.2791 16.2644 95.1692 16.1545 94.8395L14.616 91.6526C14.3962 91.3229 14.616 90.8833 14.9457 90.7734C15.2753 90.5536 15.7149 90.7734 15.8248 91.1031L17.3633 94.29C17.5831 94.6197 17.3633 95.0593 17.0337 95.1692C17.0337 95.1692 16.9238 95.2791 16.8139 95.2791ZM13.7368 88.9052C13.517 88.9052 13.1873 88.7953 13.0774 88.4656L11.5389 85.2787C11.3191 84.949 11.5389 84.5094 11.8686 84.3995C12.1983 84.1797 12.6379 84.3995 12.7478 84.7292L14.2863 87.9161C14.5061 88.2458 14.2863 88.6854 13.9566 88.7953C13.9566 88.9052 13.8467 88.9052 13.7368 88.9052Z" fill="#2A2D46"/>
<path d="M55.8264 175.612C55.6066 175.612 55.277 175.502 55.1671 175.173L54.3978 173.634C54.178 173.304 54.3978 172.865 54.7275 172.755C55.0572 172.535 55.4967 172.755 55.6066 173.085L56.3759 174.623C56.5957 174.953 56.3759 175.392 56.0462 175.502C56.0462 175.612 55.9363 175.612 55.8264 175.612Z" fill="#2A2D46"/>
<path d="M501.23 82.6411C501.12 82.6411 501.01 82.6412 500.9 82.5313C500.571 82.3115 500.461 81.9818 500.571 81.6521L501.34 80.1136C501.56 79.7839 501.889 79.674 502.219 79.7839C502.549 80.0037 502.659 80.3334 502.549 80.663L501.78 82.2016C501.78 82.4214 501.56 82.6411 501.23 82.6411Z" fill="#2A2D46"/>
<path d="M458.481 170.887C458.371 170.887 458.262 170.887 458.152 170.777C457.822 170.557 457.712 170.227 457.822 169.898L459.36 166.711C459.58 166.381 459.91 166.271 460.24 166.381C460.569 166.601 460.679 166.931 460.569 167.26L459.031 170.447C458.921 170.777 458.701 170.887 458.481 170.887ZM461.558 164.623C461.448 164.623 461.339 164.623 461.229 164.513C460.899 164.293 460.789 163.963 460.899 163.634L462.438 160.447C462.657 160.117 462.987 160.007 463.317 160.117C463.646 160.337 463.756 160.667 463.646 160.996L462.108 164.183C461.998 164.513 461.778 164.623 461.558 164.623ZM464.526 158.359C464.416 158.359 464.306 158.359 464.196 158.249C463.866 158.029 463.756 157.699 463.866 157.37L465.405 154.183C465.625 153.853 465.954 153.743 466.284 153.853C466.614 154.073 466.723 154.403 466.614 154.732L465.075 157.919C465.075 158.139 464.855 158.359 464.526 158.359ZM467.603 151.985C467.493 151.985 467.383 151.985 467.273 151.875C466.943 151.655 466.833 151.326 466.943 150.996L468.482 147.809C468.702 147.479 469.031 147.369 469.361 147.479C469.691 147.699 469.8 148.029 469.691 148.358L468.152 151.545C468.152 151.875 467.932 151.985 467.603 151.985ZM470.68 145.721C470.57 145.721 470.46 145.721 470.35 145.611C470.02 145.391 469.91 145.062 470.02 144.732L471.559 141.545C471.779 141.215 472.108 141.105 472.438 141.215C472.768 141.435 472.878 141.765 472.768 142.094L471.229 145.281C471.229 145.611 470.899 145.721 470.68 145.721ZM473.757 139.347C473.647 139.347 473.537 139.347 473.427 139.237C473.097 139.017 472.987 138.688 473.097 138.358L474.636 135.171C474.856 134.841 475.185 134.731 475.515 134.841C475.845 135.061 475.955 135.391 475.845 135.72L474.306 138.907C474.196 139.237 473.977 139.347 473.757 139.347ZM476.834 133.083C476.724 133.083 476.614 133.083 476.504 132.973C476.174 132.753 476.064 132.424 476.174 132.094L477.713 128.907C477.933 128.577 478.262 128.467 478.592 128.577C478.922 128.797 479.032 129.127 478.922 129.456L477.383 132.643C477.273 132.973 477.054 133.083 476.834 133.083ZM479.911 126.819C479.801 126.819 479.691 126.819 479.581 126.709C479.251 126.489 479.142 126.16 479.251 125.83L480.79 122.643C481.01 122.313 481.339 122.203 481.669 122.313C481.999 122.533 482.109 122.863 481.999 123.192L480.46 126.379C480.35 126.599 480.131 126.819 479.911 126.819ZM482.878 120.445C482.768 120.445 482.658 120.445 482.548 120.335C482.219 120.115 482.109 119.786 482.219 119.456L483.757 116.269C483.977 115.939 484.307 115.83 484.636 115.939C484.966 116.159 485.076 116.489 484.966 116.819L483.427 120.006C483.427 120.335 483.208 120.445 482.878 120.445ZM485.955 114.181C485.845 114.181 485.735 114.181 485.625 114.071C485.296 113.851 485.186 113.522 485.296 113.192L486.834 110.005C487.054 109.675 487.384 109.566 487.713 109.675C488.043 109.895 488.153 110.225 488.043 110.555L486.505 113.742C486.505 113.961 486.285 114.181 485.955 114.181ZM489.032 107.807C488.922 107.807 488.812 107.807 488.702 107.697C488.373 107.478 488.263 107.148 488.373 106.818L489.911 103.631C490.131 103.302 490.461 103.192 490.79 103.302C491.12 103.521 491.23 103.851 491.12 104.181L489.582 107.368C489.582 107.697 489.252 107.807 489.032 107.807ZM492.109 101.543C491.999 101.543 491.889 101.543 491.779 101.433C491.45 101.214 491.34 100.884 491.45 100.554L492.988 97.3672C493.208 97.0375 493.538 96.9276 493.867 97.0375C494.197 97.2573 494.307 97.587 494.197 97.9167L492.659 101.104C492.549 101.433 492.329 101.543 492.109 101.543ZM495.186 95.2792C495.076 95.2792 494.966 95.2792 494.857 95.1693C494.527 94.9495 494.417 94.6198 494.527 94.2901L496.065 91.1032C496.285 90.7735 496.615 90.6636 496.945 90.7735C497.274 90.9933 497.384 91.323 497.274 91.6527L495.736 94.8396C495.626 95.0594 495.406 95.2792 495.186 95.2792ZM498.263 88.9053C498.153 88.9053 498.043 88.9053 497.934 88.7954C497.604 88.5756 497.494 88.2459 497.604 87.9162L499.142 84.7293C499.362 84.3996 499.692 84.2897 500.022 84.3996C500.351 84.6194 500.461 84.9491 500.351 85.2788L498.813 88.4657C498.703 88.7954 498.483 88.9053 498.263 88.9053Z" fill="#2A2D46"/>
<path d="M456.173 175.612C456.064 175.612 455.954 175.612 455.844 175.502C455.514 175.283 455.404 174.953 455.514 174.623L456.283 173.085C456.503 172.755 456.833 172.645 457.163 172.755C457.492 172.975 457.602 173.305 457.492 173.634L456.723 175.173C456.613 175.502 456.393 175.612 456.173 175.612Z" fill="#2A2D46"/>
<path d="M106.379 448.151H104.62C104.291 448.151 103.961 447.822 103.961 447.492C103.961 447.162 104.291 446.833 104.62 446.833H106.379C106.708 446.833 107.038 447.162 107.038 447.492C107.038 447.822 106.708 448.151 106.379 448.151Z" fill="#2A2D46"/>
<path d="M402.545 448.371H399.138C398.809 448.371 398.479 448.041 398.479 447.712C398.479 447.382 398.809 447.052 399.138 447.052H402.545C402.875 447.052 403.204 447.382 403.204 447.712C403.204 448.041 402.875 448.371 402.545 448.371ZM395.622 448.371H392.215C391.885 448.371 391.556 448.041 391.556 447.712C391.556 447.382 391.885 447.052 392.215 447.052H395.622C395.951 447.052 396.281 447.382 396.281 447.712C396.391 448.041 396.061 448.371 395.622 448.371ZM388.808 448.371H385.402C385.072 448.371 384.742 448.041 384.742 447.712C384.742 447.382 385.072 447.052 385.402 447.052H388.808C389.138 447.052 389.468 447.382 389.468 447.712C389.468 448.041 389.138 448.371 388.808 448.371ZM381.885 448.371H378.478C378.148 448.371 377.819 448.041 377.819 447.712C377.819 447.382 378.148 447.052 378.478 447.052H381.885C382.215 447.052 382.544 447.382 382.544 447.712C382.544 448.041 382.215 448.371 381.885 448.371ZM374.962 448.371H371.555C371.225 448.371 370.895 448.041 370.895 447.712C370.895 447.382 371.225 447.052 371.555 447.052H374.962C375.291 447.052 375.621 447.382 375.621 447.712C375.621 448.041 375.401 448.371 374.962 448.371ZM368.148 448.371H364.741C364.412 448.371 364.082 448.041 364.082 447.712C364.082 447.382 364.412 447.052 364.741 447.052H368.148C368.478 447.052 368.807 447.382 368.807 447.712C368.807 448.041 368.478 448.371 368.148 448.371ZM361.225 448.371H357.818C357.488 448.371 357.159 448.041 357.159 447.712C357.159 447.382 357.488 447.052 357.818 447.052H361.225C361.554 447.052 361.884 447.382 361.884 447.712C361.884 448.041 361.554 448.371 361.225 448.371ZM354.301 448.371H350.895C350.565 448.371 350.235 448.041 350.235 447.712C350.235 447.382 350.565 447.052 350.895 447.052H354.301C354.631 447.052 354.961 447.382 354.961 447.712C354.961 448.041 354.741 448.371 354.301 448.371ZM347.378 448.371H343.971C343.642 448.371 343.312 448.041 343.312 447.712C343.312 447.382 343.642 447.052 343.971 447.052H347.378C347.708 447.052 348.037 447.382 348.037 447.712C348.147 448.041 347.818 448.371 347.378 448.371ZM340.564 448.371H337.158C336.828 448.371 336.498 448.041 336.498 447.712C336.498 447.382 336.828 447.052 337.158 447.052H340.564C340.894 447.052 341.224 447.382 341.224 447.712C341.224 448.041 340.894 448.371 340.564 448.371ZM333.641 448.261H330.234C329.905 448.261 329.575 447.931 329.575 447.602C329.575 447.272 329.905 446.942 330.234 446.942H333.641C333.971 446.942 334.3 447.272 334.3 447.602C334.3 448.041 334.081 448.261 333.641 448.261ZM326.718 448.261H323.311C322.981 448.261 322.652 447.931 322.652 447.602C322.652 447.272 322.981 446.942 323.311 446.942H326.718C327.047 446.942 327.377 447.272 327.377 447.602C327.487 448.041 327.157 448.261 326.718 448.261ZM319.904 448.261H316.498C316.168 448.261 315.838 447.931 315.838 447.602C315.838 447.272 316.168 446.942 316.498 446.942H319.904C320.234 446.942 320.564 447.272 320.564 447.602C320.564 448.041 320.234 448.261 319.904 448.261ZM312.981 448.261H309.574C309.244 448.261 308.915 447.931 308.915 447.602C308.915 447.272 309.244 446.942 309.574 446.942H312.981C313.311 446.942 313.64 447.272 313.64 447.602C313.64 447.931 313.42 448.261 312.981 448.261ZM306.057 448.261H302.651C302.321 448.261 301.991 447.931 301.991 447.602C301.991 447.272 302.321 446.942 302.651 446.942H306.057C306.387 446.942 306.717 447.272 306.717 447.602C306.717 447.931 306.497 448.261 306.057 448.261ZM299.244 448.261H295.837C295.508 448.261 295.178 447.931 295.178 447.602C295.178 447.272 295.508 446.942 295.837 446.942H299.244C299.574 446.942 299.903 447.272 299.903 447.602C299.903 447.931 299.574 448.261 299.244 448.261ZM292.321 448.261H288.914C288.584 448.261 288.255 447.931 288.255 447.602C288.255 447.272 288.584 446.942 288.914 446.942H292.321C292.65 446.942 292.98 447.272 292.98 447.602C292.98 447.931 292.65 448.261 292.321 448.261ZM285.397 448.261H281.991C281.661 448.261 281.331 447.931 281.331 447.602C281.331 447.272 281.661 446.942 281.991 446.942H285.397C285.727 446.942 286.057 447.272 286.057 447.602C286.167 447.931 285.837 448.261 285.397 448.261ZM278.584 448.261H275.177C274.847 448.261 274.518 447.931 274.518 447.602C274.518 447.272 274.847 446.942 275.177 446.942H278.584C278.913 446.942 279.243 447.272 279.243 447.602C279.243 447.931 278.913 448.261 278.584 448.261ZM271.66 448.261H268.254C267.924 448.261 267.594 447.931 267.594 447.602C267.594 447.272 267.924 446.942 268.254 446.942H271.66C271.99 446.942 272.32 447.272 272.32 447.602C272.32 447.931 271.99 448.261 271.66 448.261ZM264.737 448.261H261.33C261.001 448.261 260.671 447.931 260.671 447.602C260.671 447.272 261.001 446.942 261.33 446.942H264.737C265.067 446.942 265.396 447.272 265.396 447.602C265.506 447.931 265.177 448.261 264.737 448.261ZM257.924 448.261H254.517C254.187 448.261 253.857 447.931 253.857 447.602C253.857 447.272 254.187 446.942 254.517 446.942H257.924C258.253 446.942 258.583 447.272 258.583 447.602C258.583 447.931 258.253 448.261 257.924 448.261ZM251 448.261H247.593C247.264 448.261 246.934 447.931 246.934 447.602C246.934 447.272 247.264 446.942 247.593 446.942H251C251.33 446.942 251.66 447.272 251.66 447.602C251.66 447.931 251.33 448.261 251 448.261ZM244.077 448.261H240.67C240.34 448.261 240.011 447.931 240.011 447.602C240.011 447.272 240.34 446.942 240.67 446.942H244.077C244.407 446.942 244.736 447.272 244.736 447.602C244.846 447.931 244.516 448.261 244.077 448.261ZM237.263 448.261H233.857C233.527 448.261 233.197 447.931 233.197 447.602C233.197 447.272 233.527 446.942 233.857 446.942H237.263C237.593 446.942 237.923 447.272 237.923 447.602C237.923 447.931 237.593 448.261 237.263 448.261ZM230.34 448.261H226.933C226.604 448.261 226.274 447.931 226.274 447.602C226.274 447.272 226.604 446.942 226.933 446.942H230.34C230.67 446.942 230.999 447.272 230.999 447.602C230.999 447.931 230.67 448.261 230.34 448.261ZM223.417 448.261H220.01C219.68 448.261 219.35 447.931 219.35 447.602C219.35 447.272 219.68 446.942 220.01 446.942H223.417C223.746 446.942 224.076 447.272 224.076 447.602C224.076 447.931 223.856 448.261 223.417 448.261ZM216.603 448.261H213.196C212.867 448.261 212.537 447.931 212.537 447.602C212.537 447.272 212.867 446.942 213.196 446.942H216.603C216.933 446.942 217.262 447.272 217.262 447.602C217.262 447.931 216.933 448.261 216.603 448.261ZM209.68 448.151H206.273C205.943 448.151 205.614 447.822 205.614 447.492C205.614 447.162 205.943 446.833 206.273 446.833H209.68C210.009 446.833 210.339 447.162 210.339 447.492C210.339 447.931 210.009 448.151 209.68 448.151ZM202.756 448.151H199.35C199.02 448.151 198.69 447.822 198.69 447.492C198.69 447.162 199.02 446.833 199.35 446.833H202.756C203.086 446.833 203.416 447.162 203.416 447.492C203.416 447.931 203.196 448.151 202.756 448.151ZM195.833 448.151H192.426C192.097 448.151 191.767 447.822 191.767 447.492C191.767 447.162 192.097 446.833 192.426 446.833H195.833C196.163 446.833 196.492 447.162 196.492 447.492C196.602 447.931 196.273 448.151 195.833 448.151ZM189.02 448.151H185.613C185.283 448.151 184.953 447.822 184.953 447.492C184.953 447.162 185.283 446.833 185.613 446.833H189.02C189.349 446.833 189.679 447.162 189.679 447.492C189.679 447.822 189.349 448.151 189.02 448.151ZM182.096 448.151H178.689C178.36 448.151 178.03 447.822 178.03 447.492C178.03 447.162 178.36 446.833 178.689 446.833H182.096C182.426 446.833 182.756 447.162 182.756 447.492C182.756 447.822 182.536 448.151 182.096 448.151ZM175.173 448.151H171.766C171.436 448.151 171.107 447.822 171.107 447.492C171.107 447.162 171.436 446.833 171.766 446.833H175.173C175.502 446.833 175.832 447.162 175.832 447.492C175.942 447.822 175.612 448.151 175.173 448.151ZM168.359 448.151H164.953C164.623 448.151 164.293 447.822 164.293 447.492C164.293 447.162 164.623 446.833 164.953 446.833H168.359C168.689 446.833 169.019 447.162 169.019 447.492C169.019 447.822 168.689 448.151 168.359 448.151ZM161.436 448.151H158.029C157.699 448.151 157.37 447.822 157.37 447.492C157.37 447.162 157.699 446.833 158.029 446.833H161.436C161.766 446.833 162.095 447.162 162.095 447.492C162.095 447.822 161.875 448.151 161.436 448.151ZM154.513 448.151H151.106C150.776 448.151 150.446 447.822 150.446 447.492C150.446 447.162 150.776 446.833 151.106 446.833H154.513C154.842 446.833 155.172 447.162 155.172 447.492C155.282 447.822 154.952 448.151 154.513 448.151ZM147.699 448.151H144.292C143.963 448.151 143.633 447.822 143.633 447.492C143.633 447.162 143.963 446.833 144.292 446.833H147.699C148.029 446.833 148.358 447.162 148.358 447.492C148.358 447.822 148.029 448.151 147.699 448.151ZM140.776 448.151H137.369C137.039 448.151 136.71 447.822 136.71 447.492C136.71 447.162 137.039 446.833 137.369 446.833H140.776C141.105 446.833 141.435 447.162 141.435 447.492C141.435 447.822 141.105 448.151 140.776 448.151ZM133.852 448.151H130.446C130.116 448.151 129.786 447.822 129.786 447.492C129.786 447.162 130.116 446.833 130.446 446.833H133.852C134.182 446.833 134.512 447.162 134.512 447.492C134.622 447.822 134.292 448.151 133.852 448.151ZM127.039 448.151H123.632C123.302 448.151 122.973 447.822 122.973 447.492C122.973 447.162 123.302 446.833 123.632 446.833H127.039C127.369 446.833 127.698 447.162 127.698 447.492C127.698 447.822 127.369 448.151 127.039 448.151ZM120.115 448.151H116.709C116.379 448.151 116.049 447.822 116.049 447.492C116.049 447.162 116.379 446.833 116.709 446.833H120.115C120.445 446.833 120.775 447.162 120.775 447.492C120.775 447.822 120.445 448.151 120.115 448.151ZM113.192 448.151H109.785C109.456 448.151 109.126 447.822 109.126 447.492C109.126 447.162 109.456 446.833 109.785 446.833H113.192C113.522 446.833 113.851 447.162 113.851 447.492C113.961 447.822 113.632 448.151 113.192 448.151Z" fill="#2A2D46"/>
<path d="M407.711 448.371H405.952C405.623 448.371 405.293 448.041 405.293 447.712C405.293 447.382 405.623 447.052 405.952 447.052H407.711C408.04 447.052 408.37 447.382 408.37 447.712C408.37 448.041 408.04 448.371 407.711 448.371Z" fill="#2A2D46"/>
</g>
<defs>
<clipPath id="clip0_1750_12109">
<rect width="512" height="460" fill="white"/>
</clipPath>
</defs>
</svg>
